<?xml version="1.0" encoding="utf-8"?>
<!-- Generator: Adobe Illustrator 28.3.0, SVG Export Plug-In . SVG Version: 6.00 Build 0)  -->
<svg version="1.1" id="Layer_1" xmlns="http://www.w3.org/2000/svg" xmlns:xlink="http://www.w3.org/1999/xlink" x="0px" y="0px"
	 viewBox="0 0 566.93 566.93" style="enable-background:new 0 0 566.93 566.93;" xml:space="preserve">
<polygon points="167.71,80.85 148.86,62 115.95,94.91 83.04,61.99 64.19,80.85 97.09,113.76 64.18,146.67 83.03,165.52 
	115.94,132.61 148.86,165.53 167.71,146.68 134.8,113.76 "/>
<polygon points="451.02,227.99 322.01,206.34 284.57,92.66 401.1,118.23 "/>
<polygon points="311.25,210.01 221.87,303.77 186.98,180.17 274.12,95.59 "/>
<path d="M522.1,342.55l-106.96-24.24l39.1-35.98l-53.46,5.86l47.53-51.19l-127.48-19.74l-90.24,93.71l50.4,8.06l16.07,15.04
	l-71.71,47.4l91.31-19.41l-5.75,79.55l47.02-78.29l46.28,32.58l-7.01-48.19L522.1,342.55z M355.1,349.98l-32.11,53.47l3.83-53.04
	l-55.43,11.78l40.62-26.85l-14.61-13.67l62.95,10.07l30.76-33.13l36-3.94l-31.31,28.8l56,12.69l-65.3,2.7l5.39,37.01L355.1,349.98z"
	/>
<g>
</g>
<g>
</g>
<g>
</g>
<g>
</g>
<g>
</g>
<g>
</g>
</svg>
