<?xml version="1.0" encoding="utf-8"?>
<!-- Generator: Adobe Illustrator 28.3.0, SVG Export Plug-In . SVG Version: 6.00 Build 0)  -->
<svg version="1.1" id="Layer_1" xmlns="http://www.w3.org/2000/svg" xmlns:xlink="http://www.w3.org/1999/xlink" x="0px" y="0px"
	 viewBox="0 0 566.93 566.93" style="enable-background:new 0 0 566.93 566.93;" xml:space="preserve">
<polygon points="265.69,81.96 247.23,63.5 215.01,95.72 182.78,63.49 164.32,81.96 196.54,114.18 164.31,146.42 182.77,164.87 
	215,132.65 247.24,164.88 265.69,146.42 233.46,114.19 "/>
<polygon points="261.08,366.35 215.15,422.34 149.84,422.75 217.75,333.31 202.45,321.65 111,441.17 226.23,441.45 275.65,377.45 
	"/>
<path d="M431.06,99.21c-28-21.49-65.99-18.99-84.85,5.58c-1.2,1.57-133.33,174.28-146,190.84l101.04,77.02
	c14.16-18.39,145.16-188.49,146.36-190.04C466.46,158.04,459.05,120.7,431.06,99.21z M393.64,160.59
	c-7.26,0.95-13.92-4.16-14.87-11.42c-0.96-7.26,4.16-13.92,11.42-14.87c7.26-0.96,13.92,4.16,14.87,11.41
	C406.01,152.97,400.9,159.63,393.64,160.59z"/>
<g>
</g>
<g>
</g>
<g>
</g>
<g>
</g>
<g>
</g>
<g>
</g>
</svg>
