<?xml version="1.0" encoding="utf-8"?>
<!-- Generator: Adobe Illustrator 28.3.0, SVG Export Plug-In . SVG Version: 6.00 Build 0)  -->
<svg version="1.1" id="Layer_1" xmlns="http://www.w3.org/2000/svg" xmlns:xlink="http://www.w3.org/1999/xlink" x="0px" y="0px"
	 viewBox="0 0 566.93 566.93" style="enable-background:new 0 0 566.93 566.93;" xml:space="preserve">
<g>
	<polygon points="364.86,111.36 287.72,165.02 210.59,111.36 287.72,57.7 	"/>
	<polygon points="282,258.87 204.29,204.81 204.29,120.34 282,174.4 	"/>
	<polygon points="292.42,259.53 370.49,205.21 370.49,120.34 292.42,174.66 	"/>
	<path d="M86.72,162.47c0,0,3.91-17.12,19.56-17.12c0,0,19.07,1.47,19.07,19.07v87.54c0,0,3.91,8.81,7.83,15.16l44.5,57.22
		c0,0,13.2,6.84,13.69-6.85l-31.3-43.04c0,0-9.29-16.14,2.94-28.85c0,0,13.69-8.8,25.92,1.95l71.89,91.94c0,0,5.87,9.78,5.87,25.92
		v77.27H152.74v-26.4c0,0-19.56-35.21-54.77-78.25c0,0-11.25-10.76-11.25-28.36V162.47z"/>
	<path d="M487.73,162.47c0,0-3.91-17.12-19.56-17.12c0,0-19.07,1.47-19.07,19.07v87.54c0,0-3.92,8.81-7.83,15.16l-44.5,57.22
		c0,0-13.2,6.84-13.69-6.85l31.3-43.04c0,0,9.29-16.14-2.93-28.85c0,0-13.7-8.8-25.92,1.95l-71.88,91.94c0,0-5.87,9.78-5.87,25.92
		v77.27h113.94v-26.4c0,0,19.56-35.21,54.78-78.25c0,0,11.24-10.76,11.24-28.36V162.47z"/>
</g>
<g>
</g>
<g>
</g>
<g>
</g>
<g>
</g>
<g>
</g>
<g>
</g>
</svg>
