<?xml version="1.0" encoding="utf-8"?>
<!-- Generator: Adobe Illustrator 28.3.0, SVG Export Plug-In . SVG Version: 6.00 Build 0)  -->
<svg version="1.1" id="Layer_1" xmlns="http://www.w3.org/2000/svg" xmlns:xlink="http://www.w3.org/1999/xlink" x="0px" y="0px"
	 viewBox="0 0 566.93 566.93" style="enable-background:new 0 0 566.93 566.93;" xml:space="preserve">
<style type="text/css">
	.st0{fill-rule:evenodd;clip-rule:evenodd;}
</style>
<g>
	<path d="M232.74,419.54c-0.09,0.57-0.15,1.36-0.13,2.3c0.04,3.64,0.9,8.83,3.34,13.36c2.01,3.73,5.28,6.93,10.38,7.78
		c1.16,0.19,2.37,0.29,3.62,0.27c8.51-0.11,13.51-3.2,16.3-7.74c3.34-5.42,4.35-13.19,4.37-21.02l0.26-150.72
		c-12.69,2.1-23.32,10.31-28.8,21.52c-6.38-13.06-19.77-22.05-35.25-22.05c-14.93,0-27.91,8.36-34.54,20.68
		c-6.63-12.31-19.61-20.68-34.54-20.68c-15.76,0-29.35,9.32-35.58,22.77c16.68-69.25,85.55-121.64,168.87-124.12l0.03-14.89h18.78
		l-0.03,15.17c78.37,4.77,142.83,53.73,161.14,118.63c-7.03-10.59-19.04-17.56-32.67-17.56c-15.5,0-28.91,9.02-35.27,22.12
		c-6.37-13.09-19.78-22.12-35.28-22.12c-15.44,0-28.8,8.96-35.21,21.97c-4.61-9.38-12.85-16.66-22.88-19.98l-0.26,149.26
		c-0.01,10.84-1.68,22.01-7.17,30.92c-6.03,9.8-15.99,16.46-32.06,16.67c-2.5,0.03-4.81-0.14-6.92-0.49
		c-11.92-1.99-19.37-9.14-23.85-17.45c-4.06-7.52-5.48-16.08-5.56-22.08c-0.02-1.22,0.04-2.57,0.1-3.39L232.74,419.54z"/>
	<path class="st0" d="M340.23,70.75c-0.45,2.97-1.6,5.94-3.66,7.98c-2.09,2.06-4.95,3.33-8.09,3.33c-3.19,0-6.07-1.3-8.16-3.39h0
		c-2.18-2.38-3.38-4.9-3.38-8.19c0-1.81,0.42-3.54,1.17-5.08c0.76-1.55,2.23-3.22,3.04-4.05l20.82-21.12
		c0.48-0.5,1.28-0.51,1.78-0.02c0.32,0.31,0.44,0.75,0.35,1.16L340.23,70.75z"/>
	<path class="st0" d="M310.64,122.78c-0.46,2.97-1.6,5.94-3.66,7.98c-2.08,2.06-4.95,3.33-8.1,3.33c-3.18,0-6.07-1.3-8.16-3.39h0
		c-2.18-2.38-3.38-4.9-3.38-8.19c0-1.81,0.43-3.54,1.17-5.08c0.76-1.55,2.24-3.21,3.03-4.05l20.83-21.13
		c0.49-0.49,1.28-0.5,1.78-0.02c0.31,0.31,0.44,0.75,0.35,1.16L310.64,122.78z"/>
	<path class="st0" d="M231.51,143.79c-0.45,2.97-1.6,5.94-3.66,7.98c-2.08,2.06-4.94,3.33-8.1,3.33c-3.18,0-6.06-1.3-8.15-3.39l0,0
		c-2.18-2.38-3.38-4.9-3.38-8.19c0-1.81,0.42-3.54,1.17-5.08c0.75-1.55,2.23-3.22,3.03-4.05l20.83-21.13
		c0.48-0.5,1.28-0.51,1.77-0.02c0.32,0.31,0.43,0.76,0.35,1.16L231.51,143.79z"/>
	<path class="st0" d="M359.51,149.46c-0.45,2.97-1.59,5.94-3.66,7.98c-2.08,2.06-4.95,3.33-8.09,3.33c-3.18,0-6.07-1.29-8.16-3.39h0
		c-2.17-2.38-3.38-4.9-3.38-8.18c0-1.81,0.42-3.54,1.18-5.08c0.75-1.55,2.23-3.21,3.03-4.05l20.83-21.12
		c0.48-0.5,1.28-0.51,1.77-0.02c0.32,0.32,0.44,0.76,0.35,1.17L359.51,149.46z"/>
	<path class="st0" d="M392.42,99.76c-0.45,2.97-1.6,5.94-3.66,7.98c-2.08,2.06-4.94,3.33-8.1,3.33c-3.17,0-6.06-1.3-8.15-3.39h0
		c-2.18-2.37-3.38-4.9-3.38-8.18c0-1.81,0.42-3.54,1.17-5.08c0.75-1.55,2.23-3.22,3.03-4.05l20.83-21.13
		c0.48-0.5,1.28-0.5,1.77-0.02c0.32,0.31,0.43,0.75,0.35,1.16L392.42,99.76z"/>
	<path class="st0" d="M433.66,152.12c-0.45,2.97-1.6,5.94-3.66,7.98c-2.08,2.06-4.94,3.33-8.09,3.33c-3.19,0-6.07-1.3-8.16-3.39
		h-0.01c-2.18-2.38-3.38-4.9-3.38-8.19c0-1.81,0.42-3.54,1.18-5.08c0.76-1.55,2.23-3.21,3.03-4.05l20.83-21.13
		c0.48-0.5,1.28-0.51,1.78-0.02c0.31,0.31,0.43,0.75,0.34,1.17L433.66,152.12z"/>
	<path class="st0" d="M272.4,72.09c-0.44,2.96-1.6,5.94-3.66,7.98c-2.08,2.06-4.95,3.33-8.1,3.33c-3.17,0-6.06-1.29-8.15-3.39h0
		c-2.18-2.38-3.38-4.9-3.38-8.18c0-1.81,0.42-3.53,1.17-5.08c0.75-1.55,2.23-3.21,3.03-4.05l20.83-21.13
		c0.48-0.5,1.28-0.51,1.78-0.02c0.31,0.31,0.43,0.75,0.34,1.17L272.4,72.09z"/>
	<path class="st0" d="M192.61,88.09c-0.45,2.97-1.6,5.94-3.66,7.98c-2.08,2.06-4.94,3.33-8.09,3.33c-3.18,0-6.06-1.3-8.15-3.39
		h-0.01c-2.17-2.38-3.37-4.9-3.37-8.18c0-1.81,0.41-3.54,1.17-5.08c0.75-1.55,2.23-3.22,3.03-4.05l20.83-21.13
		c0.48-0.5,1.28-0.51,1.77-0.02c0.32,0.31,0.43,0.75,0.35,1.16L192.61,88.09z"/>
</g>
<g>
</g>
<g>
</g>
<g>
</g>
<g>
</g>
<g>
</g>
<g>
</g>
</svg>
